<svg width="452" height="56.501" viewBox="0 0 452 56.501" xmlns="http://www.w3.org/2000/svg"><g id="svgGroup" stroke-linecap="round" fill-rule="evenodd" font-size="9pt" stroke="#000" stroke-width="0.25mm" fill="black" style="stroke:#000;stroke-width:0.25mm;fill:black"><path d="M 26.9 55.2 L 0 55.2 L 0 1.2 L 20.3 1.2 A 32.6 32.6 0 0 1 22.942 1.301 Q 25.294 1.493 27 2.05 A 13.056 13.056 0 0 1 28.777 2.77 Q 30.124 3.443 31 4.35 Q 32.4 5.8 32.9 7.7 A 15.233 15.233 0 0 1 33.351 10.455 A 18.189 18.189 0 0 1 33.4 11.8 L 33.4 18.2 A 14.941 14.941 0 0 1 32.99 21.755 A 12.945 12.945 0 0 1 32.35 23.7 A 4.711 4.711 0 0 1 30.819 25.613 Q 29.482 26.638 27.188 27.251 A 17.846 17.846 0 0 1 27 27.3 A 32.6 32.6 0 0 1 29.642 27.401 Q 31.994 27.593 33.7 28.15 A 11.958 11.958 0 0 1 35.481 28.886 Q 36.447 29.386 37.171 30.027 A 6.687 6.687 0 0 1 37.7 30.55 Q 39.1 32.1 39.55 34.2 A 20.026 20.026 0 0 1 39.926 36.835 A 25.214 25.214 0 0 1 40 38.8 L 40 45.2 A 17.002 17.002 0 0 1 39.842 47.565 A 13.822 13.822 0 0 1 39.5 49.25 Q 39 51.1 37.65 52.4 A 6.736 6.736 0 0 1 36.347 53.366 Q 35.675 53.755 34.839 54.073 A 14.615 14.615 0 0 1 33.7 54.45 A 16.326 16.326 0 0 1 31.625 54.893 Q 30.544 55.056 29.278 55.133 A 39.442 39.442 0 0 1 26.9 55.2 Z M 27 28.3 L 1 28.3 L 1 54.2 L 26.9 54.2 A 36.283 36.283 0 0 0 29.932 54.083 Q 33.067 53.819 34.939 52.96 A 5.553 5.553 0 0 0 36.7 51.75 A 8.266 8.266 0 0 0 38.746 47.741 A 12.08 12.08 0 0 0 39 45.2 L 39 38.8 A 14.882 14.882 0 0 0 38.629 35.392 A 10.878 10.878 0 0 0 36.75 31.3 A 5.817 5.817 0 0 0 34.583 29.592 Q 32.547 28.604 29.188 28.372 A 31.785 31.785 0 0 0 27 28.3 Z M 20.3 2.2 L 1 2.2 L 1 27.3 L 20.3 27.3 Q 24.303 27.3 26.686 26.585 A 10.545 10.545 0 0 0 26.8 26.55 Q 28.548 26.004 29.686 25.193 A 6.02 6.02 0 0 0 30.45 24.55 Q 31.7 23.3 32.05 21.65 A 16.431 16.431 0 0 0 32.397 18.537 A 18.299 18.299 0 0 0 32.4 18.2 L 32.4 11.8 A 11.565 11.565 0 0 0 31.878 8.26 A 9.789 9.789 0 0 0 30.1 5 Q 27.8 2.2 20.3 2.2 Z" id="0" vector-effect="non-scaling-stroke"/><path d="M 111.5 13.5 L 111.5 43 A 13.584 13.584 0 0 1 110.647 47.898 A 12.155 12.155 0 0 1 107.2 52.75 Q 103.632 55.862 94.968 56.392 A 61.886 61.886 0 0 1 91.2 56.5 Q 82.26 56.5 77.699 54.311 A 10.207 10.207 0 0 1 75.3 52.75 A 12.32 12.32 0 0 1 71.116 43.742 A 16.561 16.561 0 0 1 71.1 43 L 71.1 13.5 Q 71.1 7.5 75.3 3.75 A 11.09 11.09 0 0 1 78.651 1.775 Q 83.151 0 91.2 0 Q 102.9 0 107.2 3.75 A 12.191 12.191 0 0 1 111.479 12.668 A 16.108 16.108 0 0 1 111.5 13.5 Z M 72.1 13.5 L 72.1 43 Q 72.1 48.6 76.1 52.05 Q 79.34 54.844 87.236 55.376 A 59.217 59.217 0 0 0 91.2 55.5 Q 99.875 55.5 104.274 53.393 A 9.975 9.975 0 0 0 106.4 52.05 A 11.114 11.114 0 0 0 110.47 43.947 A 14.578 14.578 0 0 0 110.5 43 L 110.5 13.5 Q 110.5 7.9 106.4 4.45 A 11.016 11.016 0 0 0 103.203 2.65 Q 98.875 1 91.2 1 Q 82.749 1 78.414 3 A 9.807 9.807 0 0 0 76.1 4.45 A 11.224 11.224 0 0 0 72.124 12.639 A 15.005 15.005 0 0 0 72.1 13.5 Z" id="1" vector-effect="non-scaling-stroke"/><path d="M 148.3 2 L 185.1 43.4 L 185.1 1.2 L 186.1 1.2 L 186.1 55.2 L 185.1 55.2 L 185.1 44.9 L 147.3 2.5 A 1.348 1.348 0 0 0 147.195 2.407 Q 147.138 2.361 147.071 2.314 A 2.288 2.288 0 0 0 147.05 2.3 A 0.931 0.931 0 0 0 146.971 2.253 Q 146.889 2.209 146.825 2.202 A 0.22 0.22 0 0 0 146.8 2.2 A 0.155 0.155 0 0 0 146.715 2.224 Q 146.676 2.249 146.65 2.3 A 0.482 0.482 0 0 0 146.61 2.413 A 0.408 0.408 0 0 0 146.6 2.5 L 146.6 55.2 L 145.6 55.2 L 145.6 2.3 A 1.426 1.426 0 0 1 145.643 1.939 A 0.954 0.954 0 0 1 146 1.4 A 1.709 1.709 0 0 1 146.306 1.215 Q 146.53 1.111 146.754 1.101 A 1.068 1.068 0 0 1 146.8 1.1 A 1.351 1.351 0 0 1 147.191 1.155 A 1.152 1.152 0 0 1 147.5 1.3 A 2.705 2.705 0 0 1 147.685 1.437 Q 147.881 1.593 148.137 1.84 A 12.426 12.426 0 0 1 148.3 2 Z" id="2" vector-effect="non-scaling-stroke"/><path d="M 236.1 54.2 L 252.8 54.2 L 252.8 55.2 L 236.1 55.2 Q 226.4 55.2 223.25 52.2 A 8.818 8.818 0 0 1 221.153 48.975 Q 220.594 47.548 220.331 45.754 A 23.957 23.957 0 0 1 220.1 42.3 L 220.1 14.3 Q 220.1 7.2 223.3 4.2 A 5.941 5.941 0 0 1 223.398 4.11 Q 226.645 1.2 236.1 1.2 L 252.8 1.2 L 252.8 2.2 L 236.1 2.2 Q 229.409 2.2 226.013 3.79 A 7.511 7.511 0 0 0 224.2 4.95 A 8.017 8.017 0 0 0 222.108 8.025 Q 221.573 9.359 221.322 11.047 A 22.177 22.177 0 0 0 221.1 14.3 L 221.1 42.3 A 22.242 22.242 0 0 0 221.312 45.485 Q 221.875 49.368 223.939 51.35 A 6.768 6.768 0 0 0 224.1 51.5 A 7.627 7.627 0 0 0 226.41 52.866 Q 228.762 53.8 232.567 54.08 A 48.235 48.235 0 0 0 236.1 54.2 Z" id="3" vector-effect="non-scaling-stroke"/><path d="M 285 55.2 L 284 55.2 L 284 1.2 L 285 1.2 L 285 27.7 L 323.4 27.7 L 323.4 1.2 L 324.4 1.2 L 324.4 55.2 L 323.4 55.2 L 323.4 28.7 L 285 28.7 L 285 55.2 Z" id="4" vector-effect="non-scaling-stroke"/><path d="M 388.3 54.2 L 388.3 55.2 L 356.5 55.2 L 356.5 54.2 L 372 54.2 L 372 2.2 L 356.5 2.2 L 356.5 1.2 L 388.3 1.2 L 388.3 2.2 L 373 2.2 L 373 54.2 L 388.3 54.2 Z" id="5" vector-effect="non-scaling-stroke"/><path d="M 435.3 54.2 L 452 54.2 L 452 55.2 L 435.3 55.2 Q 425.6 55.2 422.45 52.2 A 8.818 8.818 0 0 1 420.353 48.975 Q 419.794 47.548 419.531 45.754 A 23.957 23.957 0 0 1 419.3 42.3 L 419.3 14.3 Q 419.3 7.2 422.5 4.2 A 5.941 5.941 0 0 1 422.598 4.11 Q 425.845 1.2 435.3 1.2 L 452 1.2 L 452 2.2 L 435.3 2.2 Q 428.609 2.2 425.213 3.79 A 7.511 7.511 0 0 0 423.4 4.95 A 8.017 8.017 0 0 0 421.308 8.025 Q 420.773 9.359 420.522 11.047 A 22.177 22.177 0 0 0 420.3 14.3 L 420.3 42.3 A 22.242 22.242 0 0 0 420.512 45.485 Q 421.075 49.368 423.139 51.35 A 6.768 6.768 0 0 0 423.3 51.5 A 7.627 7.627 0 0 0 425.61 52.866 Q 427.962 53.8 431.767 54.08 A 48.235 48.235 0 0 0 435.3 54.2 Z" id="6" vector-effect="non-scaling-stroke"/></g></svg>